<?xml version="1.0" encoding="utf-8"?>
<!-- Generator: Adobe Illustrator 19.0.0, SVG Export Plug-In . SVG Version: 6.00 Build 0)  -->
<svg version="1.1" xmlns="http://www.w3.org/2000/svg" xmlns:xlink="http://www.w3.org/1999/xlink" x="0px" y="0px"
	 viewBox="0 0 178 170" enable-background="new 0 0 178 170" xml:space="preserve">
<g id="Background_xA0_Image_1_">
</g>
<g id="Layer_2_xA0_Image_1_">
	
		<text transform="matrix(0.9075 0 0 1 442 202.5986)" display="none" fill="#FFFFFF" font-family="'Harabara'" font-size="164.1342px" letter-spacing="5.5">works</text>
</g>
<g id="_works_xA0_Image_1_">
</g>
<g id="W">
</g>
<g id="Layer_1_xA0_Image_1_">
	<linearGradient id="SVGID_1_" gradientUnits="userSpaceOnUse" x1="133.6499" y1="38.2375" x2="133.6499" y2="139.9675">
		<stop  offset="0" style="stop-color:#42E7FF"/>
		<stop  offset="1" style="stop-color:#003BBC"/>
	</linearGradient>
	<linearGradient id="SVGID_2_" gradientUnits="userSpaceOnUse" x1="123.9948" y1="89.1025" x2="143.3049" y2="89.1025">
		<stop  offset="0" style="stop-color:#0097CE"/>
		<stop  offset="1" style="stop-color:#03004E"/>
	</linearGradient>
	<path fill="url(#SVGID_1_)" stroke="url(#SVGID_2_)" stroke-miterlimit="10" d="M124.7,38.2v26.3c0,4.3,0.1,8.7,0.3,13.2
		c0.2,4.4,0.1,8.8-0.3,13.1c0,0.3-0.1,0.6-0.1,1l-0.1,37.9c0.2,1.5,0.3,3.1,0.2,4.9c-0.1,1.8-0.1,3.6,0,5.4h18.1V38.2H124.7z"/>
	<linearGradient id="SVGID_3_" gradientUnits="userSpaceOnUse" x1="45.2712" y1="89.2453" x2="124.5649" y2="89.2453">
		<stop  offset="0" style="stop-color:#42E7FF"/>
		<stop  offset="1" style="stop-color:#003BBC"/>
	</linearGradient>
	<linearGradient id="SVGID_4_" gradientUnits="userSpaceOnUse" x1="44.7712" y1="89.2453" x2="125.0649" y2="89.2453">
		<stop  offset="0" style="stop-color:#0097CE"/>
		<stop  offset="1" style="stop-color:#03004E"/>
	</linearGradient>
	<path fill="url(#SVGID_3_)" stroke="url(#SVGID_4_)" stroke-miterlimit="10" d="M124.6,91.8l-0.1,37.9c0,0,0-0.1,0-0.1
		c-2.2,1.5-4.5,3-7,4.4c-2.5,1.4-5.2,2.6-8.1,3.7c-2.9,1-6.1,1.8-9.5,2.3c-3.4,0.5-7.1,0.5-11.3,0.1c-6-0.7-11.4-2.3-16.2-5
		s-9-5.9-12.7-9.7c-3.5-3.7-6.6-8-9.3-13.2c-2.7-5.1-4.3-10.7-5-16.8c-0.3-2.3-0.3-4.7-0.2-7.1c0.1-2.5,0.2-4.8,0.2-7.1V38.8
		c0-0.4,0.1-0.6,0.2-0.6h17.9c0.4,9,0.3,17.7-0.2,26.3c-0.5,8.6-0.5,17.2,0.2,25.9c0.7,8.6,3.7,15.7,9.1,21.3
		c5.4,5.7,12.2,8.7,20.4,9.3h2.1c3.9-0.1,7.5-1,10.9-2.5c3.4-1.6,6.4-3.7,9.1-6.3c2.7-2.6,4.8-5.8,6.4-9.4
		C123.2,99.4,124.1,95.8,124.6,91.8z"/>
	<line fill="none" x1="124.5" y1="130.3" x2="124.5" y2="149.2"/>
	<line fill="none" x1="124.7" y1="38.8" x2="124.6" y2="92.4"/>
</g>
<g id="Layer_2_copy_xA0_Image_1_">
</g>
</svg>
