<?xml version="1.0" encoding="utf-8"?>
<!-- Generator: Adobe Illustrator 19.0.0, SVG Export Plug-In . SVG Version: 6.00 Build 0)  -->
<svg version="1.1" xmlns="http://www.w3.org/2000/svg" xmlns:xlink="http://www.w3.org/1999/xlink" x="0px" y="0px"
	 viewBox="0 0 1002 386" enable-background="new 0 0 1002 386" xml:space="preserve">
<g id="Background_xA0_Image_1_">
</g>
<g id="Layer_2_xA0_Image_1_">
	<linearGradient id="SVGID_1_" gradientUnits="userSpaceOnUse" x1="533.6132" y1="359.6312" x2="913.3868" y2="140.3688">
		<stop  offset="0" style="stop-color:#42E7FF"/>
		<stop  offset="1" style="stop-color:#0072AF"/>
	</linearGradient>
	<rect x="509" y="183" fill="url(#SVGID_1_)" width="429" height="134"/>
	
		<text transform="matrix(0.9075 0 0 1 551 323.5986)" display="none" fill="#FFFFFF" font-family="'Harabara'" font-size="164.1342px" letter-spacing="5.5">works</text>
</g>
<g id="_works_xA0_Image_1_">
	<g>
		<g>
			<g>
				<path fill="#FFFFFF" d="M629.6,216.4v43.4c0,16.5-10.1,27.4-25.6,27.4c-10.5,0-18.7-4.9-22.8-13.1c-4,8.2-12.3,13.1-22.8,13.1
					c-15.5,0-25.6-10.9-25.6-27.4v-43.4h13.9v43.8c0,9.2,5.4,15.4,13.8,15.4c8.4,0,13.9-6.2,13.9-15.4v-43.8H588v43.8
					c0,9.2,5.5,15.4,13.9,15.4c8.4,0,13.8-6.2,13.8-15.4v-43.8H629.6z"/>
				<path fill="#FFFFFF" d="M603.9,287.9c-10.1,0-18.4-4.5-22.8-12.3c-4.4,7.8-12.7,12.3-22.8,12.3c-15.8,0-26.4-11.3-26.4-28.2
					v-44.2h15.4v44.6c0,8.9,5.1,14.7,13,14.7c7.9,0,13.1-5.9,13.1-14.7v-44.6h15.3v44.6c0,8.8,5.3,14.7,13.1,14.7
					c7.9,0,13-5.8,13-14.7v-44.6h15.4v44.2C630.3,276.6,619.7,287.9,603.9,287.9z M581.1,272.3l0.7,1.4c4,8.1,12.1,12.7,22.1,12.7
					c15.1,0,24.9-10.5,24.9-26.7v-42.7h-12.4v43.1c0,9.7-5.8,16.2-14.5,16.2c-8.8,0-14.6-6.5-14.6-16.2v-43.1H575v43.1
					c0,9.7-5.9,16.2-14.6,16.2c-8.7,0-14.5-6.5-14.5-16.2v-43.1h-12.4v42.7c0,16.2,9.8,26.7,24.9,26.7c10.1,0,18.1-4.6,22.1-12.7
					L581.1,272.3z"/>
			</g>
		</g>
		<g>
			<path fill="#FFFFFF" d="M718.1,251.1c0,20.9-14.8,36.1-35.3,36.1c-20.5,0-35.5-15.1-35.5-36.1s15-36.1,35.5-36.1
				C703.2,215.1,718.1,230.2,718.1,251.1z M661.4,251.1c0,13.7,8.9,23.5,21.2,23.5c12.4,0,21.3-9.8,21.3-23.5
				c0-13.6-8.9-23.5-21.3-23.5C670.3,227.7,661.4,237.6,661.4,251.1z"/>
			<path fill="#FFFFFF" d="M682.7,287.9c-21,0-36.2-15.5-36.2-36.8s15.2-36.8,36.2-36.8c20.9,0,36.1,15.5,36.1,36.8
				S703.6,287.9,682.7,287.9z M682.7,215.8c-20.1,0-34.7,14.8-34.7,35.3s14.6,35.3,34.7,35.3c20,0,34.6-14.8,34.6-35.3
				S702.8,215.8,682.7,215.8z M682.6,275.4c-12.7,0-21.9-10.2-21.9-24.2s9.2-24.2,21.9-24.2c12.8,0,22.1,10.2,22.1,24.2
				S695.4,275.4,682.6,275.4z M682.6,228.4c-11.8,0-20.4,9.6-20.4,22.7s8.6,22.7,20.4,22.7c12.1,0,20.6-9.3,20.6-22.7
				C703.1,238,694.5,228.4,682.6,228.4z"/>
		</g>
		<g>
			<path fill="#FFFFFF" d="M735.7,285.9v-42.7c0-17,11.1-26.9,30.2-26.9v12.2c-10.3,0-16.3,5.5-16.3,16v41.4H735.7z"/>
			<path fill="#FFFFFF" d="M750.4,286.7H735v-43.4c0-17.3,11.6-27.6,31-27.6h0.8v13.7h-0.8c-10,0-15.6,5.4-15.6,15.2V286.7z
				 M736.5,285.2h12.4v-40.7c0-10.4,5.9-16.4,16.3-16.7v-10.7c-18.3,0.3-28.7,9.7-28.7,26.1V285.2z"/>
		</g>
		<g>
			<path fill="#FFFFFF" d="M916,236.1h-13c-0.3-6.2-5.5-10.5-13.2-10.5c-7,0-12.1,3.7-12.1,8.9c0,7.2,6.1,8.3,13.8,9.9
				c9.4,1.8,26.2,4.8,26.2,21.5c0,12.6-11.3,21.2-27.2,21.2c-16.1,0-27.4-8.9-27.5-21.8h13.5c0.3,6.6,6.2,11,14.4,11
				c7.7,0,13.2-3.8,13.2-9.6c0-7.2-6.6-8.3-14.2-9.8c-10-1.6-25.8-4.7-25.8-21.1c0-12.6,10.5-20.9,26-20.9
				C905.2,215.1,916,223.7,916,236.1z"/>
			<path fill="#FFFFFF" d="M890.3,287.9c-16.5,0-28.1-9.3-28.3-22.5l0-0.8h15l0,0.7c0.3,6.2,5.8,10.3,13.7,10.3
				c7.3,0,12.5-3.6,12.5-8.9c0-6.5-5.8-7.6-13.2-9l-0.3-0.1c-8.5-1.3-26.4-4.1-26.4-21.8c0-13,10.8-21.7,26.8-21.7
				c15.7,0,26.6,9,26.6,21.8v0.8h-14.4l0-0.7c-0.3-5.8-5.3-9.7-12.5-9.7c-6.6,0-11.4,3.4-11.4,8.2c0,6.5,5.4,7.6,12.9,9.1l0.8,0.2
				c9.8,1.9,26.3,5.1,26.3,22.1C918.3,278.9,906.8,287.9,890.3,287.9z M863.6,266.2c0.6,12,11.4,20.3,26.7,20.3
				c15.6,0,26.5-8.4,26.5-20.5c0-15.8-15.7-18.8-25.1-20.7l-0.8-0.2c-7.5-1.5-14.1-2.8-14.1-10.6c0-5.6,5.4-9.7,12.9-9.7
				c7.8,0,13.3,4.2,13.9,10.5h11.5c-0.4-11.6-10.6-19.6-25.1-19.6c-15.1,0-25.3,8.1-25.3,20.2c0,14.4,12.1,18.3,25.1,20.3l0.4,0.1
				c7.4,1.4,14.4,2.7,14.4,10.4c0,6.1-5.7,10.4-14,10.4c-8.5,0-14.5-4.4-15.1-11H863.6z"/>
		</g>
		<g>
			<g>
				<path fill="#FFFFFF" d="M812.7,250.8l29.6,35.1h-15.8l-27.3-32.7v32.7h-13.3v-68.3h13.3v31.1l27.3-30.1h15.8L812.7,250.8z"/>
				<path fill="#FFFFFF" d="M843.9,286.7h-17.8l-0.2-0.3L800,255.3v31.4h-14.8v-69.8H800v29.9l26.2-28.9H844l-30.3,32.9L843.9,286.7
					z M826.9,285.2h13.8l-29-34.4l28.9-31.4h-13.7l-28.4,31.3v-32.3h-11.8v66.8h11.8v-34L826.9,285.2z"/>
			</g>
		</g>
	</g>
</g>
<g id="W">
</g>
<g id="Layer_1_xA0_Image_1_">
	<linearGradient id="SVGID_2_" gradientUnits="userSpaceOnUse" x1="249.237" y1="70.0059" x2="249.237" y2="171.9366">
		<stop  offset="0" style="stop-color:#42E7FF"/>
		<stop  offset="1" style="stop-color:#003BBC"/>
	</linearGradient>
	<linearGradient id="SVGID_3_" gradientUnits="userSpaceOnUse" x1="239.6411" y1="120.9713" x2="258.8329" y2="120.9713">
		<stop  offset="0" style="stop-color:#0097CE"/>
		<stop  offset="1" style="stop-color:#03004E"/>
	</linearGradient>
	<path fill="url(#SVGID_2_)" stroke="url(#SVGID_3_)" stroke-miterlimit="10" d="M258.1,70c0.3,16.7,0.3,33.6,0.2,50.7
		c-0.1,17.1-0.1,34.1,0,51.3h-18.1V70.8c0-0.5,0.1-0.8,0.2-0.8H258.1z"/>
	<linearGradient id="SVGID_4_" gradientUnits="userSpaceOnUse" x1="345.2678" y1="70.4152" x2="345.2678" y2="172.3218">
		<stop  offset="0" style="stop-color:#42E7FF"/>
		<stop  offset="1" style="stop-color:#003BBC"/>
	</linearGradient>
	<linearGradient id="SVGID_5_" gradientUnits="userSpaceOnUse" x1="265.9507" y1="121.3685" x2="424.7146" y2="121.3685">
		<stop  offset="0" style="stop-color:#0097CE"/>
		<stop  offset="1" style="stop-color:#03004E"/>
	</linearGradient>
	<path fill="url(#SVGID_4_)" stroke="url(#SVGID_5_)" stroke-miterlimit="10" d="M421.6,85.3c-2.2-2.3-4.7-4.5-7.6-6.5
		c-2.9-2-6-3.7-9.4-5.1c-3.4-1.4-7.1-2.3-11.1-2.9c-4-0.5-8.3-0.5-12.7,0c-1.8,0.3-3.4,0.6-4.9,0.9c-1.4,0.3-2.8,0.7-4.1,1.1
		c-4,1.5-7.6,3.3-10.7,5.4c-3.1,2.1-6,4.6-8.8,7.4c-0.4,0.4-0.8,0.9-1.2,1.3c-2.9,3.3-5.4,7-7.7,11.2c-1.1,2-1.9,4.2-2.7,6.5
		c-1,3.2-1.7,6.7-2.1,10.5c-0.5,4.9-0.5,9.4,0.1,13.6c0.5,3.2,1.2,6.3,2.1,9.1c-1.3,2.2-2.8,4.2-4.5,6c-2.6,2.7-5.6,4.8-9,6.4
		c-3.4,1.6-7,2.6-10.9,2.9c-1.4,0-2.8-0.1-4.1-0.2c-1.3-0.1-2.5-0.3-3.7-0.6c-6.6-1.5-12.1-4.9-16.6-10.2
		c-4.4-5.3-6.9-11.8-7.4-19.6c-0.1-1.4-0.1-2.7,0.1-4.1c0.2-1.4,0.4-2.7,0.7-4.1c0.8-3.7,2-6.9,3.7-9.6c1.7-2.7,3.6-5.1,5.9-7.1
		c2.3-2.3,4.9-4.1,7.7-5.3c2.8-1.2,6.3-2.1,10.4-2.7c4.3-0.5,8.3,0,12.2,1.6c2,0.9,3.9,1.8,5.6,3c0.7-2.2,1.6-4.2,2.6-6.1
		c2.1-3.9,4.4-7.4,7-10.5c-2.4-1.6-5.1-2.9-7.9-4.1c-3.4-1.4-7.1-2.3-11.1-2.9c-4-0.5-8.3-0.5-12.7,0c-1.8,0.3-3.5,0.6-4.9,0.9
		c-1.4,0.3-2.8,0.7-4.1,1.1c-4,1.5-7.6,3.3-10.7,5.4c-3.1,2.1-6,4.6-8.8,7.4c-3.4,3.5-6.3,7.7-8.9,12.5c-2.5,4.8-4.1,10.5-4.8,17
		c-0.5,4.9-0.5,9.4,0.1,13.6c0.6,4.2,1.6,8,2.9,11.4c1.4,3.5,3,6.6,4.9,9.5c1.9,2.8,3.9,5.4,5.9,7.5c2.2,2.3,4.7,4.5,7.4,6.4
		c2.7,2,5.8,3.7,9.2,5.1c3.4,1.4,7,2.4,10.9,3c3.9,0.6,8.1,0.7,12.7,0.1c6.1-0.7,11.6-2.4,16.4-5c4.8-2.7,9-5.9,12.5-9.7
		c0.5-0.5,1-1.1,1.5-1.6c2.9-3.3,5.5-7.1,7.7-11.4c1-1.9,1.8-3.9,2.5-5.9c-2.7-4.5-4.3-9.7-4.7-15.7c-0.1-1.4-0.1-2.7,0.1-4.1
		c0.2-1.4,0.4-2.7,0.7-4.1c0.8-3.7,2-6.9,3.7-9.6c0.1-0.1,0.2-0.3,0.3-0.4c1.6-2.5,3.5-4.8,5.6-6.7c2.3-2.3,4.9-4.1,7.7-5.3
		c2.8-1.2,6.3-2.1,10.4-2.7c4.3-0.5,8.3,0,12.2,1.6c3.8,1.6,7,3.7,9.6,6.1c2.6,2.4,4.9,5.5,7,9.2c0.3,0.5,0.6,1.1,0.8,1.7
		c0.9-4.1,2.2-8,4-11.6c1.6-3.2,3.3-6,5.2-8.6C423.3,87.1,422.5,86.2,421.6,85.3z"/>
	<linearGradient id="SVGID_6_" gradientUnits="userSpaceOnUse" x1="434.2018" y1="69.6394" x2="434.2018" y2="172.3218">
		<stop  offset="0" style="stop-color:#42E7FF"/>
		<stop  offset="1" style="stop-color:#003BBC"/>
	</linearGradient>
	<linearGradient id="SVGID_7_" gradientUnits="userSpaceOnUse" x1="352.8273" y1="120.9806" x2="515.3886" y2="120.9806">
		<stop  offset="0" style="stop-color:#0097CE"/>
		<stop  offset="1" style="stop-color:#03004E"/>
	</linearGradient>
	<path fill="url(#SVGID_6_)" stroke="url(#SVGID_7_)" stroke-miterlimit="10" d="M514.6,114.7c-0.7-6.1-2.3-11.8-4.9-16.9
		c-2.6-5.2-5.6-9.6-9-13.3c-3.8-3.8-8.1-7-12.9-9.7c-4.8-2.7-10.2-4.3-16.2-5c-3.8-0.3-7.4-0.2-11,0.2c-3.6,0.4-6.7,1-9.3,1.8
		c-6.2,2.2-11.6,5.2-16.1,9.1c-3.4,2.9-6.4,6.3-9,10.2c-0.8,1.2-1.6,2.5-2.4,3.8c-1.4,2.4-2.8,5.3-4,8.7c-1.2,3.3-2,6.8-2.4,10.3
		c-0.1,1.2-0.2,2.4-0.2,3.6c0.1,0.8,0.2,1.6,0.2,2.5v2.5c0,0.2,0,0.5-0.1,0.7c-0.3,4.1-1.2,7.9-2.8,11.3c-1.6,3.7-3.7,6.8-6.3,9.5
		c-2.6,2.7-5.6,4.8-9,6.4s-7,2.6-10.9,2.9c-1.4,0-2.8-0.1-4.1-0.2s-2.5-0.3-3.7-0.6c-6.6-1.5-12.1-4.9-16.6-10.2
		c-0.1-0.2-0.3-0.4-0.4-0.6c-1.3,3.3-3.1,6.6-5.2,10.1c-1.5,2.4-3.2,4.5-4.9,6.5c2,2,4.1,3.8,6.5,5.5c2.7,2,5.8,3.7,9.2,5.1
		c3.4,1.4,7,2.4,10.9,3c3.9,0.6,8.1,0.7,12.7,0.1c6.1-0.7,11.6-2.4,16.4-5c3.1-1.7,5.9-3.6,8.4-5.8c1.4-1.2,2.8-2.5,4-3.9
		c3.5-3.7,6.6-8,9.2-13c2.5-4.8,4.1-10.3,4.8-16.3c0-0.2,0-0.4,0.1-0.6c0.3-2.7,0.4-5.3,0.3-7.8c0.2-1.9,0.4-3.7,0.7-5.5
		c0.5-3.1,1.4-5.7,2.5-8.1c2.5-4.8,6-8.8,10.6-12s9.8-5,15.7-5.1c3.8-0.1,7.3,0.4,10.7,1.7c3.4,1.3,6.4,3.1,9.1,5.3
		c2.7,2.3,4.9,4.9,6.7,8.1c1.8,3.1,3.1,6.5,3.9,10c0.9,4.5,1.3,9.5,1.1,15.1c-0.2,5.6-0.3,10.9-0.3,16.1v26.3h17.9v-42.4
		c0-2.3,0.1-4.7,0.2-7.1C515,119.3,514.9,117,514.6,114.7z"/>
	<linearGradient id="SVGID_8_" gradientUnits="userSpaceOnUse" x1="648.7637" y1="109.3879" x2="709.4055" y2="109.3879">
		<stop  offset="0" style="stop-color:#003BBC"/>
		<stop  offset="1" style="stop-color:#42E7FF"/>
	</linearGradient>
	<linearGradient id="SVGID_9_" gradientUnits="userSpaceOnUse" x1="648.2637" y1="109.2045" x2="709.9055" y2="109.2045">
		<stop  offset="0" style="stop-color:#0097CE"/>
		<stop  offset="1" style="stop-color:#03004E"/>
	</linearGradient>
	<path fill="url(#SVGID_8_)" stroke="url(#SVGID_9_)" stroke-miterlimit="10" d="M707.2,108.7c-9.2,0.1-18.6,0-28.1,0
		c-9.5-0.1-18.8-0.2-27.8-0.4c-1.4,3.5-2.3,7.4-2.5,11.4c-0.1,3.6,0.3,7.1,1.2,10.4c-0.2-0.8-0.4-1.7-0.5-2.5
		c13,0.1,25.9,0.3,38.8,0.4c6.8,0.1,13.6,0.1,20.4,0.1c0.4-1.9,0.7-3.9,0.8-5.9C709.6,117.4,708.8,112.8,707.2,108.7z M680.8,88.7
		c4.1,0.4,7.8,1.3,11.1,2.9C688.5,89.9,684.8,88.9,680.8,88.7z"/>
	<linearGradient id="SVGID_10_" gradientUnits="userSpaceOnUse" x1="653.5268" y1="76.6535" x2="713.3206" y2="180.2194">
		<stop  offset="0" style="stop-color:#42E7FF"/>
		<stop  offset="1" style="stop-color:#003BBC"/>
	</linearGradient>
	<linearGradient id="SVGID_11_" gradientUnits="userSpaceOnUse" x1="629.105" y1="120.8863" x2="727.8271" y2="120.8863">
		<stop  offset="0" style="stop-color:#0097CE"/>
		<stop  offset="1" style="stop-color:#03004E"/>
	</linearGradient>
	<path fill="url(#SVGID_10_)" stroke="url(#SVGID_11_)" stroke-miterlimit="10" d="M727,117.8c-0.5,3.4-0.5,6.8-0.2,10.2
		c-6.1,0.1-12.1,0.1-18.2,0.1c0.4-1.9,0.7-3.9,0.8-5.9c0.2-4.8-0.6-9.4-2.2-13.5l0.1,0c-2-5.5-5.3-10-9.8-13.6
		c-1.6-1.3-3.4-2.4-5.3-3.4c-0.1,0-0.1-0.1-0.2-0.1c-3.4-1.7-7.1-2.7-11.1-2.9c0,0-0.1,0-0.1,0c-1-0.3-2.1-0.3-3.3,0
		c-0.6,0.1-1.1,0.1-1.7,0.2c-0.3,0-0.5,0.1-0.7,0.1c-0.4,0.1-0.8,0.1-1.2,0.2c-0.1,0-0.2,0-0.3,0.1c-4.9,1-9.1,2.8-12.5,5.6
		c-4.3,3.5-7.6,8-9.9,13.4l0.1,0c-1.4,3.5-2.3,7.4-2.5,11.4c-0.1,3.6,0.3,7.1,1.2,10.4c0.1,0.3,0.2,0.7,0.3,1
		c1.4,4.8,3.8,9.1,7.3,12.7c0.2,0.2,0.3,0.4,0.5,0.5c0.2,0.2,0.4,0.4,0.6,0.6c0.2,0.2,0.3,0.3,0.5,0.5c0.5,0.4,0.9,0.8,1.4,1.2
		c4.8,3.9,10.7,6.4,17.2,6.6c0.5,0,0.9,0,1.4,0c3.2,0.2,6.6,0.3,10,0.2c4.2-0.1,8.3-0.1,12.5-0.1l24.8,0.2c0.2,3,0.3,6.2,0.1,9.5
		c-0.2,3.3-0.2,6.6-0.1,9.7l-26.9-0.2c-4.5,0-9,0-13.5,0.2c-4.4,0.2-8.8,0-13.2-0.4c-5.8-0.7-11.3-2.5-16.2-5.3
		c-5-2.8-9.2-6.1-12.7-9.8c-3.7-4-6.9-8.5-9.3-13.5c-2.4-4.8-3.9-10.2-4.5-16.1c0-0.3-0.1-0.7-0.1-1c-0.5-4.8-0.4-9.2,0.2-13.4
		c0.3-1.7,0.6-3.4,1-5c0.5-2.3,1.2-4.4,2-6.4c1.4-3.5,3-6.6,5-9.5c1.9-2.9,4-5.5,6.2-7.8c2.6-2.7,5.5-5.1,8.7-7.3
		c3.2-2.2,6.9-4,11.1-5.4c2.7-1.1,5.9-1.8,9.6-2.3c3.6-0.5,7.5-0.4,11.7,0.2c4.5,0.4,8.9,1.6,12.9,3.4c4.1,1.8,7.8,4.1,11.1,6.8
		c3.3,2.7,6.2,5.9,8.8,9.5c2.6,3.6,4.7,7.2,6.3,11.1c0.5,1.2,1,2.5,1.4,3.8c0.4,1.3,0.8,2.5,1,3.6C727.4,111,727.4,114.4,727,117.8z
		"/>
	<linearGradient id="SVGID_12_" gradientUnits="userSpaceOnUse" x1="735.1705" y1="120.8702" x2="832.6104" y2="120.8702">
		<stop  offset="0" style="stop-color:#42E7FF"/>
		<stop  offset="1" style="stop-color:#003BBC"/>
	</linearGradient>
	<linearGradient id="SVGID_13_" gradientUnits="userSpaceOnUse" x1="734.6705" y1="120.8702" x2="833.2167" y2="120.8702">
		<stop  offset="0" style="stop-color:#0097CE"/>
		<stop  offset="1" style="stop-color:#03004E"/>
	</linearGradient>
	<path fill="url(#SVGID_12_)" stroke="url(#SVGID_13_)" stroke-miterlimit="10" d="M832.2,108.5c-3,0.1-6.2,0.2-9.6,0.2
		c-3.4,0-6.6-0.1-9.6-0.2c-0.8-1.2-1.5-2.4-2-3.7s-1.3-2.4-2-3.5c-2.5-3.4-5.6-6.3-9.3-8.6c-3.7-2.3-8.1-3.7-13.2-4.1
		c-1.3-0.1-2.6-0.1-3.9,0c-8.1,0.7-14.8,3.8-20.1,9.5c-5.3,5.6-8.3,12.7-9,21.3c-0.3,5.2,0.6,9.8,2.6,14c2,4.1,4.3,7.6,6.9,10.3
		c2.5,2.6,5.5,4.8,9.1,6.5c3.6,1.8,7.6,2.7,12.2,2.9c3.6,0,7-0.6,10.2-1.9c3.2-1.3,5.9-2.9,8.3-4.8c2.5-1.9,4.5-4.1,6.1-6.5
		c1.6-2.4,3.1-5.2,4.4-8.2c3-0.3,6.2-0.4,9.6-0.4c3.4,0,6.6,0.1,9.6,0.4c-1.3,6.1-3.2,11.3-5.7,15.5c-2.5,4.2-5.6,8.1-9.4,11.6
		c-4.4,4.1-9.6,7.5-15.6,10.2c-6,2.7-13.4,3.7-22.2,3.1c-6.1-0.4-11.7-2-16.8-4.8c-5.1-2.8-9.5-6-13.3-9.7c-2.2-2.2-4.3-4.7-6.2-7.6
		c-2-2.9-3.6-6.2-5-9.8c-1.4-3.6-2.3-7.5-2.9-11.7c-0.6-4.2-0.6-8.8-0.1-13.7c0.6-6.5,2.2-12.3,4.8-17.2c2.5-5,5.5-9.2,8.9-12.7
		c3.1-3.4,6.6-6.3,10.4-8.6c3.8-2.3,8.3-4.1,13.4-5.5c2.2-0.5,4.9-1,8.2-1.2c3.2-0.3,6.4-0.3,9.4,0c5.6,0.5,10.7,2,15.2,4.5
		c4.5,2.4,8.5,5.2,11.9,8.4c3.6,3.5,6.7,7.4,9.2,11.6C829.2,98.3,831.1,103.1,832.2,108.5z"/>
	<linearGradient id="SVGID_14_" gradientUnits="userSpaceOnUse" x1="842.7431" y1="97.0441" x2="940.2061" y2="97.0441">
		<stop  offset="0" style="stop-color:#42E7FF"/>
		<stop  offset="1" style="stop-color:#003BBC"/>
	</linearGradient>
	<linearGradient id="SVGID_15_" gradientUnits="userSpaceOnUse" x1="842.2431" y1="97.0441" x2="940.7322" y2="97.0441">
		<stop  offset="0" style="stop-color:#0097CE"/>
		<stop  offset="1" style="stop-color:#03004E"/>
	</linearGradient>
	<path fill="url(#SVGID_14_)" stroke="url(#SVGID_15_)" stroke-miterlimit="10" d="M843.3,21.7h17.9v48.5c4.2,0.4,8.5,0.5,13.1,0.4
		c4.5-0.1,9-0.1,13.4,0v19h-26.3c0,6-0.1,11.9-0.4,17.6c-0.3,5.8-0.2,11.2,0.2,16.2c0.6,8.2,3.6,15,8.9,20.5
		c5.3,5.5,11.9,8.6,20,9.3c4.3,0.3,8.3-0.3,11.9-1.7c3.6-1.4,6.9-3.5,9.6-6.1c2.8-2.7,5.1-5.8,6.8-9.5c1.8-3.7,3-7.6,3.6-11.8
		c3,0.1,6.1,0.1,9.3,0c3.2-0.1,6.1-0.1,8.9,0.2c-0.4,6.9-1.8,13-4.1,18.3c-2.3,5.3-5.4,10.1-9.2,14.3c-4.4,4.9-10,8.9-16.8,11.9
		c-6.8,3.1-14.8,4.2-24.2,3.4c-6.2-0.5-11.7-2.2-16.5-5c-4.7-2.8-8.9-6-12.4-9.7s-6.6-8-9.2-12.9c-2.6-5-4.2-10.7-4.9-17.2
		c-0.4-4.1-0.5-8.4-0.3-12.8c0.2-4.5,0.3-9,0.3-13.5V22.7C842.9,22.2,842.9,21.8,843.3,21.7z"/>
	<linearGradient id="SVGID_16_" gradientUnits="userSpaceOnUse" x1="586.5238" y1="156.0733" x2="632.5709" y2="110.0262">
		<stop  offset="0" style="stop-color:#42E7FF"/>
		<stop  offset="1" style="stop-color:#003BBC"/>
	</linearGradient>
	<linearGradient id="SVGID_17_" gradientUnits="userSpaceOnUse" x1="589.4183" y1="139.9829" x2="631.6276" y2="139.9829">
		<stop  offset="0" style="stop-color:#0097CE"/>
		<stop  offset="1" style="stop-color:#03004E"/>
	</linearGradient>
	<path fill="url(#SVGID_16_)" stroke="url(#SVGID_17_)" stroke-miterlimit="10" d="M630,126.8c-0.5-4.8-0.5-9.2,0.1-13.4
		c0.2-1.7,0.5-3.4,0.9-5h-26.6H590l11.8,62.9l18.8-5.3l-10.8-38.2h20.2C630,127.5,630,127.1,630,126.8z"/>
	<linearGradient id="SVGID_18_" gradientUnits="userSpaceOnUse" x1="142.6499" y1="69.2375" x2="142.6499" y2="170.9675">
		<stop  offset="0" style="stop-color:#42E7FF"/>
		<stop  offset="1" style="stop-color:#003BBC"/>
	</linearGradient>
	<linearGradient id="SVGID_19_" gradientUnits="userSpaceOnUse" x1="132.9948" y1="120.1025" x2="152.3049" y2="120.1025">
		<stop  offset="0" style="stop-color:#0097CE"/>
		<stop  offset="1" style="stop-color:#03004E"/>
	</linearGradient>
	<path fill="url(#SVGID_18_)" stroke="url(#SVGID_19_)" stroke-miterlimit="10" d="M133.7,69.2v26.3c0,4.3,0.1,8.7,0.3,13.2
		c0.2,4.4,0.1,8.8-0.3,13.1c0,0.3-0.1,0.6-0.1,1l-0.1,37.9c0.2,1.5,0.3,3.1,0.2,4.9c-0.1,1.8-0.1,3.6,0,5.4h18.1V69.2H133.7z"/>
	<linearGradient id="SVGID_20_" gradientUnits="userSpaceOnUse" x1="54.2712" y1="120.2453" x2="133.5649" y2="120.2453">
		<stop  offset="0" style="stop-color:#42E7FF"/>
		<stop  offset="1" style="stop-color:#003BBC"/>
	</linearGradient>
	<linearGradient id="SVGID_21_" gradientUnits="userSpaceOnUse" x1="53.7712" y1="120.2453" x2="134.0649" y2="120.2453">
		<stop  offset="0" style="stop-color:#0097CE"/>
		<stop  offset="1" style="stop-color:#03004E"/>
	</linearGradient>
	<path fill="url(#SVGID_20_)" stroke="url(#SVGID_21_)" stroke-miterlimit="10" d="M133.6,122.8l-0.1,37.9c0,0,0-0.1,0-0.1
		c-2.2,1.5-4.5,3-7,4.4c-2.5,1.4-5.2,2.6-8.1,3.7c-2.9,1-6.1,1.8-9.5,2.3c-3.4,0.5-7.1,0.5-11.3,0.1c-6-0.7-11.4-2.3-16.2-5
		s-9-5.9-12.7-9.7c-3.5-3.7-6.6-8-9.3-13.2c-2.7-5.1-4.3-10.7-5-16.8c-0.3-2.3-0.3-4.7-0.2-7.1c0.1-2.5,0.2-4.8,0.2-7.1V69.8
		c0-0.4,0.1-0.6,0.2-0.6h17.9c0.4,9,0.3,17.7-0.2,26.3c-0.5,8.6-0.5,17.2,0.2,25.9c0.7,8.6,3.7,15.7,9.1,21.3
		c5.4,5.7,12.2,8.7,20.4,9.3h2.1c3.9-0.1,7.5-1,10.9-2.5c3.4-1.6,6.4-3.7,9.1-6.3c2.7-2.6,4.8-5.8,6.4-9.4
		C132.2,130.4,133.1,126.8,133.6,122.8z"/>
	<linearGradient id="SVGID_22_" gradientUnits="userSpaceOnUse" x1="151.8049" y1="119.9221" x2="232.0486" y2="119.9221">
		<stop  offset="0" style="stop-color:#003BBC"/>
		<stop  offset="1" style="stop-color:#42E7FF"/>
	</linearGradient>
	<linearGradient id="SVGID_23_" gradientUnits="userSpaceOnUse" x1="151.3049" y1="119.9221" x2="232.5486" y2="119.9221">
		<stop  offset="0" style="stop-color:#0097CE"/>
		<stop  offset="1" style="stop-color:#03004E"/>
	</linearGradient>
	<path fill="url(#SVGID_22_)" stroke="url(#SVGID_23_)" stroke-miterlimit="10" d="M232,121.2c-0.1,2.4-0.2,4.8-0.2,7.1v42.4h-17.9
		v-26.3c0-5.2,0.1-10.5,0.3-16.1c0.2-5.6-0.2-10.6-1.1-15.1c-0.8-3.5-2.1-6.9-3.9-10c-1.8-3.1-4.1-5.8-6.7-8.1
		c-2.7-2.2-5.7-4-9.1-5.3c-3.4-1.3-7-1.9-10.7-1.7c-5.8,0.1-11.1,1.8-15.7,5.1c-4.6,3.3-8.2,7.3-10.6,12c-1.2,2.3-2,5-2.5,8.1
		c-0.5,3.1-0.8,6.3-1,9.7c-0.1,3.4-0.2,6.9-0.1,10.6s0.1,7.3,0.1,11v25.9c-0.3,0-0.7,0.1-1,0.1V81c0.3-0.2,0.5-0.5,0.8-0.7
		c4.5-3.9,9.8-6.9,16.1-9.1c2.6-0.8,5.7-1.4,9.3-1.8c3.6-0.4,7.2-0.5,11-0.2c6,0.7,11.4,2.3,16.2,5c4.8,2.6,9.1,5.9,12.9,9.7
		c3.4,3.7,6.4,8.1,9,13.3c2.6,5.2,4.2,10.8,4.9,16.9C232,116.4,232.1,118.8,232,121.2z"/>
	<line fill="none" x1="133.5" y1="161.3" x2="133.5" y2="180.2"/>
	<line fill="none" x1="133.7" y1="69.8" x2="133.6" y2="123.4"/>
	<linearGradient id="SVGID_24_" gradientUnits="userSpaceOnUse" x1="571.8812" y1="69.6392" x2="571.8812" y2="171.3941">
		<stop  offset="0" style="stop-color:#42E7FF"/>
		<stop  offset="1" style="stop-color:#003BBC"/>
	</linearGradient>
	<linearGradient id="SVGID_25_" gradientUnits="userSpaceOnUse" x1="522.5854" y1="120.5167" x2="621.177" y2="120.5167">
		<stop  offset="0" style="stop-color:#0097CE"/>
		<stop  offset="1" style="stop-color:#03004E"/>
	</linearGradient>
	<path fill="url(#SVGID_24_)" stroke="url(#SVGID_25_)" stroke-miterlimit="10" d="M620.4,171.3h-17.9V145c0-5.2,0.1-10.5,0.3-16.1
		c0.2-5.6-0.2-10.6-1.1-15.1c-0.8-3.5-2.1-6.9-3.9-10c-1.8-3.1-4.1-5.8-6.7-8.1c-2.7-2.2-5.7-4-9.1-5.3c-3.4-1.3-7-1.9-10.7-1.7
		c-5.8,0.1-11.1,1.8-15.7,5.1c-4.6,3.3-8.2,7.3-10.6,12c-1.2,2.3-2,5-2.5,8.1c-0.5,3.1-0.8,6.3-1,9.7c-0.1,3.4-0.2,6.9-0.1,10.6
		c0.1,3.7,0.1,7.3,0.1,11v25.9c-2.9,0.3-5.8,0.3-9,0.2c-3.1-0.1-6.2-0.1-9.2,0v-43.2c0-2.4-0.1-4.9-0.2-7.2c-0.1-2.4-0.1-4.7,0.2-7
		c0.4-3.5,1.2-7,2.4-10.3c1.2-3.3,2.6-6.2,4-8.7c3.1-5.4,6.9-10.1,11.4-14s9.8-6.9,16.1-9.1c2.6-0.8,5.7-1.4,9.3-1.8
		c3.6-0.4,7.2-0.5,11-0.2c6,0.7,11.4,2.3,16.2,5c4.8,2.7,9.1,5.9,12.9,9.7c3.4,3.7,6.4,8.1,9,13.3c2.6,5.2,4.2,10.8,4.9,16.9
		c0.3,2.3,0.3,4.7,0.2,7.1c-0.1,2.4-0.2,4.8-0.2,7.1V171.3z"/>
</g>
<g id="Layer_2_copy_xA0_Image_1_">
	<g id="globe-2_2_">
		<linearGradient id="SVGID_26_" gradientUnits="userSpaceOnUse" x1="383.2169" y1="105.5621" x2="383.2436" y2="105.5621">
			<stop  offset="0" style="stop-color:#42E7FF"/>
			<stop  offset="1" style="stop-color:#003BBC"/>
		</linearGradient>
		<polygon fill="url(#SVGID_26_)" points="383.2,105.5 383.2,105.6 383.2,105.6 		"/>
		<linearGradient id="SVGID_27_" gradientUnits="userSpaceOnUse" x1="363.6133" y1="121.3502" x2="411" y2="121.3502">
			<stop  offset="0" style="stop-color:#42E7FF"/>
			<stop  offset="1" style="stop-color:#003BBC"/>
		</linearGradient>
		<path fill="url(#SVGID_27_)" d="M387.3,96.2c-13.1,0-23.7,11.3-23.7,25.1s10.6,25.1,23.7,25.1c13.1,0,23.7-11.3,23.7-25.1
			C411,107.5,400.4,96.2,387.3,96.2z M409,121.4c0,0.4,0,0.9-0.1,1.3c-0.2-0.4-0.4-0.9-0.4-1.2c-0.1-0.3-0.6-1.6-0.6-1.6
			s-0.5-0.7-0.8-0.9c-0.3-0.2-0.6-0.6-1.1-1c-0.6-0.3-0.8-0.5-1.3-0.5c-0.5,0-1-0.7-1.6-1c-0.6-0.3-0.7-0.2-0.7-0.2s0.7,1,0.7,1.3
			s0.7,0.7,1.5,0.5c0,0,0.5,1,0.7,1.2s-0.1,0.5-0.6,0.9c-0.5,0.3-0.4,0.3-0.7,0.5c-0.2,0.3-1.1,0.7-1.3,0.9
			c-0.2,0.2-1.2,0.7-1.7,0.2c-0.2-0.3-0.2-0.8-0.3-1.1c-0.2-0.3-1.9-3-2.7-4.2c-0.1-0.2-0.5-0.9-0.7-1c-0.2-0.2,0.6-0.2,0.6-0.2
			s0-0.6-0.1-1c-0.1-0.4,0.1-1,0.1-1s-0.8,0.5-1.1,0.7c-0.2,0.2-0.5-0.3-0.8-0.8c-0.3-0.4-0.7-1-0.7-1.4c-0.1-0.4,0.4-0.6,0.4-0.6
			l0.7-0.4c0,0,0.9-0.2,1.5-0.1c0.6,0.1,1.5,0.2,1.5,0.2s0.2-0.6-0.1-0.9c-0.3-0.3-1.1-0.7-1.4-0.6c-0.3,0.1,0.2-0.4,0.6-0.8
			l-0.9-0.2c0,0-0.8,0.4-1.1,0.5c-0.2,0.1-0.7,0.3-1,0.7c-0.3,0.4,0.1,1-0.2,1.2c-0.3,0.2-0.5,0.3-0.8,0.3c-0.2,0.1-1,0-1,0
			c-0.8,0-0.3,0.8-0.1,1.1l-0.7-0.8l-0.5-1.2c0,0-0.7-0.5-1-0.7c-0.3-0.2-1.3-0.8-1.3-0.8l0.1,0.8l0.9,1l0.1,0l0.5,0.7l-1.1,0.1
			v-0.7c-1-0.3-0.8-0.5-0.9-0.6c-0.2-0.2-0.8-0.6-0.8-0.6s-1,0.2-1.2,0.3c-0.2,0.1-0.3,0.3-0.8,0.5c-0.5,0.2-0.7,0.4-0.9,0.7
			c-0.2,0.3-0.7,1-1,1.4c-0.3,0.3-0.9,0.3-1.2,0.3c-0.2,0-1.4-0.3-1.4-0.3v-1.5c0,0,0.2-0.8,0.1-1.1l0.7-0.1l1.2-0.3l0.3-0.3
			l0.5-0.7c0,0-0.6-0.4-0.2-1c0.2-0.3,0.9-0.3,1.2-0.6c0.3-0.3,0.8-0.4,0.8-0.4s0.6-0.5,1.1-1.1c0,0,0.4-0.3,0.9-0.4
			c0,0,1.4,1.3,1.6,1.3s1.1-0.6,1.1-0.6s0.2-0.8,0.2-1c-0.1-0.3-0.5-1.1-0.5-1.1s-0.2,0.4-0.5,0.8c-0.2,0.3-0.4,0.8-0.4,0.8
			s-1.1-0.1-1.2-0.3c-0.1-0.3-0.2-0.7-0.3-0.9c-0.1-0.3-0.7-0.3-1.2-0.1c-0.5,0.2,0.1-0.9,0.1-0.9s0.5-0.7,0.8-0.7
			c0.3,0,1.1-0.4,1.4-0.5c0.3-0.1,1.3-0.5,1.7-0.5c0.4,0,0.9,0.2,1.1,0.2c0.2,0,1.2,0,1.2,0l1.7-0.1c0,0,1.5,0.6,1,0.9
			c0,0,0.6,0.4,0.8,0.6c0.2,0.2,0.8-0.2,1.2-0.4C404.9,106,409,113.2,409,121.4z M370,107.8c0,0.3-0.4,0.4,0,1.3
			c0.6,1.1,0.1,1.6,0.1,1.6s-1.4,1-1.6,1.2s-0.9,1.1-0.5,0.9c0.4-0.3,0.9-0.5,0.5,0.2c-0.4,0.7-1.1,1.8-1.3,2.3c-0.2,0.4-1,1.5-1,2
			c0,0.5-0.3,1.6-0.2,2c0.1,0.3-0.1,1.2-0.3,1.6c0.1-4.9,1.7-9.4,4.2-13C370,107.8,370,107.8,370,107.8z M372.7,104.5
			c2-2,4.3-3.5,6.9-4.6c-0.3,0.3-0.6,0.7-0.6,0.7s-0.6,0-1.6,1.2c-1.1,1.2-0.8,0.9-1.1,1.2c-0.2,0.3-0.2,0.4-0.7,0.9
			c-0.6,0.4-0.8,1-0.8,1l-0.9,0.3l-0.7-0.3c0,0-0.7,0.3-0.6-0.1C372.6,104.7,372.6,104.6,372.7,104.5z M382.4,106.5l-0.3-0.5
			l0.3-0.8l0.8,0.3V104l0.8-0.4l0.6,1l1,1.1l-0.6,0.5l-1.7,0.3v-0.9L382.4,106.5z M393,114.6c0.2-0.2,0.8,0.3,0.8,0.3s2,0.4,2.4,0.7
			c0.3,0.3,0.9,0.4,1.1,0.7c0.2,0.3,0.7,1,0.8,1.3c0.1,0.3,0.5,1.2,0.6,1.6c0.1,0.3,0.3,1.2,0.6,1.6c0.2,0.4,1.6,2.3,2.1,3.2
			l1.5-0.3c0,0-0.2,0.8-0.3,1c-0.2,0.3-0.7,1-0.9,1.3c-0.2,0.3-0.6,0.9-1.1,1.3c-0.5,0.4-0.5,0.9-0.7,1.2c-0.2,0.3-0.6,1.1-0.6,1.1
			s0.2,1.7,0.2,2.1c0.1,0.3-0.6,1.3-0.6,1.3l-0.7,0.8l-1,1.4l0.1,1.3c0,0-0.7,0.6-1.2,1c-0.4,0.3-0.3,0.6-0.7,1
			c-0.3,0.3-1.6,1-1.9,1c-0.3,0.1-2.1,0.3-2.1,0.3v-0.8l0-0.9c0,0-0.2-1-0.5-1.4c-0.2-0.3-0.1-0.9-0.5-1.3c-0.4-0.4-0.6-0.8-0.6-1
			c-0.1-0.3,0.1-1,0.1-1s0.3-1,0.5-1.3c0.2-0.3,0-0.9-0.2-1.2c-0.2-0.3-0.2-1.2-0.2-1.5c0-0.3-0.7-0.7-0.9-1s-0.2-0.6-0.2-0.9
			c0-0.3-0.2-1.1-0.2-1.7c0.1-0.6-0.7-0.2-1.2,0c-0.5,0.2-0.8-0.2-0.8-0.7c0-0.5-0.9-0.1-1.5,0.3c-0.6,0.3-1.2,0.3-1.9,0.6
			c-0.7,0.3-1-0.3-1-0.3s-0.6-0.5-1-0.8c-0.4-0.3-0.8-0.8-1.1-1.2c-0.3-0.4-1.1-1.7-1.2-2.3c-0.1-0.5,0-0.9,0-1.5s0-1,0.1-1.4
			c0.1-0.4,0.3-1,0.6-1.4c0.2-0.4,1.1-1,1.4-1.1c0.2-0.2,0.8-0.7,0.8-1c0-0.3,0.3-0.5,0.5-0.9c0.2-0.3,0.7-1.2,1.5-0.9
			c0,0,0.7-0.1,0.9-0.2c0.2-0.1,0.9-0.3,1.2-0.5c0.3-0.2,1.1-0.3,1.1-0.3s0.6,0.3,0.9,0.3s1-0.2,1-0.2s0.4,1.3,0.4,1.5
			c0,0.3,0.2,0.5,0.7,0.7C390.3,114.9,392.2,115.3,393,114.6z M402.4,131.6c0,0.3-0.1,1-0.2,1.3c-0.1,0.3-0.2,1-0.3,1.3
			c-0.1,0.3-0.5,1-0.7,1.2c-0.2,0.2-0.7,0.7-0.9,0.8c-0.2,0.1-0.4-0.6-0.3-1c0.1-0.3,0.5-1.3,0.5-1.3s0.1-0.5,0.2-0.9
			c0.1-0.3,1.1-0.8,1.1-0.8l0.7-1.3C402.3,131,402.4,131.4,402.4,131.6z M366.2,126.5c0.1,0,0.3,0.1,0.5,0.3
			c0.3,0.3,0.5,0.4,0.9,0.6c0.4,0.2,0.6,0.4,1.1,0.7c0.5,0.3,0.3,0.1,1,0.9c0.7,0.8,0.6,0.8,0.7,1.2c0.2,0.4,0.4,0.9,0.6,1.1
			c0.2,0.3,0.7,0.4,0.9,0.6c0.2,0.2,0.7,0.3,0.9,0.3c0.2,0,1,0.8,1.4,0.9c0.4,0.1,0.4,1,0.4,1l-0.4,1.2l-0.3,1.3l0.3,1
			c0,0-0.5,0.4-0.8,0.4c-0.3,0-0.4,0.2-0.7,0.1C369.5,135,367.2,131,366.2,126.5z"/>
	</g>
</g>
</svg>
