<?xml version="1.0" encoding="utf-8"?>
<!-- Generator: Adobe Illustrator 19.0.0, SVG Export Plug-In . SVG Version: 6.00 Build 0)  -->
<svg version="1.1" xmlns="http://www.w3.org/2000/svg" xmlns:xlink="http://www.w3.org/1999/xlink" x="0px" y="0px"
	 viewBox="0 0 800 340" enable-background="new 0 0 800 340" xml:space="preserve">
<g id="Background_xA0_Image_1_">
</g>
<g id="Layer_2_xA0_Image_1_">
	
		<text transform="matrix(0.9075 0 0 1 442 270.5986)" display="none" fill="#FFFFFF" font-family="'Harabara'" font-size="164.1342px" letter-spacing="5.5">works</text>
</g>
<g id="_works_xA0_Image_1_">
</g>
<g id="W">
</g>
<g id="Layer_1_xA0_Image_1_">
	<linearGradient id="SVGID_1_" gradientUnits="userSpaceOnUse" x1="240.237" y1="107.0059" x2="240.237" y2="208.9366">
		<stop  offset="0" style="stop-color:#42E7FF"/>
		<stop  offset="1" style="stop-color:#003BBC"/>
	</linearGradient>
	<linearGradient id="SVGID_2_" gradientUnits="userSpaceOnUse" x1="230.6411" y1="157.9713" x2="249.8329" y2="157.9713">
		<stop  offset="0" style="stop-color:#0097CE"/>
		<stop  offset="1" style="stop-color:#03004E"/>
	</linearGradient>
	<path fill="url(#SVGID_1_)" stroke="url(#SVGID_2_)" stroke-miterlimit="10" d="M249.1,107c0.3,16.7,0.3,33.6,0.2,50.7
		c-0.1,17.1-0.1,34.1,0,51.3h-18.1V107.8c0-0.5,0.1-0.8,0.2-0.8H249.1z"/>
	<linearGradient id="SVGID_3_" gradientUnits="userSpaceOnUse" x1="389.7636" y1="146.3879" x2="450.4054" y2="146.3879">
		<stop  offset="0" style="stop-color:#003BBC"/>
		<stop  offset="1" style="stop-color:#42E7FF"/>
	</linearGradient>
	<linearGradient id="SVGID_4_" gradientUnits="userSpaceOnUse" x1="389.2636" y1="146.2045" x2="450.9054" y2="146.2045">
		<stop  offset="0" style="stop-color:#0097CE"/>
		<stop  offset="1" style="stop-color:#03004E"/>
	</linearGradient>
	<path fill="url(#SVGID_3_)" stroke="url(#SVGID_4_)" stroke-miterlimit="10" d="M448.2,145.7c-9.2,0.1-18.6,0-28.1,0
		c-9.5-0.1-18.8-0.2-27.8-0.4c-1.4,3.5-2.3,7.4-2.5,11.4c-0.1,3.6,0.3,7.1,1.2,10.4c-0.2-0.8-0.4-1.7-0.5-2.5
		c13,0.1,25.9,0.3,38.8,0.4c6.8,0.1,13.6,0.1,20.4,0.1c0.4-1.9,0.7-3.9,0.8-5.9C450.6,154.4,449.8,149.8,448.2,145.7z M421.8,125.7
		c4.1,0.4,7.8,1.3,11.1,2.9C429.5,126.9,425.8,125.9,421.8,125.7z"/>
	<linearGradient id="SVGID_5_" gradientUnits="userSpaceOnUse" x1="394.5268" y1="113.6535" x2="454.3206" y2="217.2194">
		<stop  offset="0" style="stop-color:#42E7FF"/>
		<stop  offset="1" style="stop-color:#003BBC"/>
	</linearGradient>
	<linearGradient id="SVGID_6_" gradientUnits="userSpaceOnUse" x1="370.1051" y1="157.8863" x2="468.8271" y2="157.8863">
		<stop  offset="0" style="stop-color:#0097CE"/>
		<stop  offset="1" style="stop-color:#03004E"/>
	</linearGradient>
	<path fill="url(#SVGID_5_)" stroke="url(#SVGID_6_)" stroke-miterlimit="10" d="M468,154.8c-0.5,3.4-0.5,6.8-0.2,10.2
		c-6.1,0.1-12.1,0.1-18.2,0.1c0.4-1.9,0.7-3.9,0.8-5.9c0.2-4.8-0.6-9.4-2.2-13.5l0.1,0c-2-5.5-5.3-10-9.8-13.6
		c-1.6-1.3-3.4-2.4-5.3-3.4c-0.1,0-0.1-0.1-0.2-0.1c-3.4-1.7-7.1-2.7-11.1-2.9c0,0-0.1,0-0.1,0c-1-0.3-2.1-0.3-3.3,0
		c-0.6,0.1-1.1,0.1-1.7,0.2c-0.3,0-0.5,0.1-0.7,0.1c-0.4,0.1-0.8,0.1-1.2,0.2c-0.1,0-0.2,0-0.3,0.1c-4.9,1-9.1,2.8-12.5,5.6
		c-4.3,3.5-7.6,8-9.9,13.4l0.1,0c-1.4,3.5-2.3,7.4-2.5,11.4c-0.1,3.6,0.3,7.1,1.2,10.4c0.1,0.3,0.2,0.7,0.3,1
		c1.4,4.8,3.8,9.1,7.3,12.7c0.2,0.2,0.3,0.4,0.5,0.5c0.2,0.2,0.4,0.4,0.6,0.6c0.2,0.2,0.3,0.3,0.5,0.5c0.5,0.4,0.9,0.8,1.4,1.2
		c4.8,3.9,10.7,6.4,17.2,6.6c0.5,0,0.9,0,1.4,0c3.2,0.2,6.6,0.3,10,0.2c4.2-0.1,8.3-0.1,12.5-0.1l24.8,0.2c0.2,3,0.3,6.2,0.1,9.5
		c-0.2,3.3-0.2,6.6-0.1,9.7l-26.9-0.2c-4.5,0-9,0-13.5,0.2c-4.4,0.2-8.8,0-13.2-0.4c-5.8-0.7-11.3-2.5-16.2-5.3
		c-5-2.8-9.2-6.1-12.7-9.8c-3.7-4-6.9-8.5-9.3-13.5c-2.4-4.8-3.9-10.2-4.5-16.1c0-0.3-0.1-0.7-0.1-1c-0.5-4.8-0.4-9.2,0.2-13.4
		c0.3-1.7,0.6-3.4,1-5c0.5-2.3,1.2-4.4,2-6.4c1.4-3.5,3-6.6,5-9.5c1.9-2.9,4-5.5,6.2-7.8c2.6-2.7,5.5-5.1,8.7-7.3
		c3.2-2.2,6.9-4,11.1-5.4c2.7-1.1,5.9-1.8,9.6-2.3c3.6-0.5,7.5-0.4,11.7,0.2c4.5,0.4,8.9,1.6,12.9,3.4c4.1,1.8,7.8,4.1,11.1,6.8
		c3.3,2.7,6.2,5.9,8.8,9.5c2.6,3.6,4.7,7.2,6.3,11.1c0.5,1.2,1,2.5,1.4,3.8c0.4,1.3,0.8,2.5,1,3.6C468.4,148,468.4,151.4,468,154.8z
		"/>
	<linearGradient id="SVGID_7_" gradientUnits="userSpaceOnUse" x1="499.8202" y1="122.1863" x2="571.0834" y2="193.4496">
		<stop  offset="0" style="stop-color:#42E7FF"/>
		<stop  offset="1" style="stop-color:#003BBC"/>
	</linearGradient>
	<linearGradient id="SVGID_8_" gradientUnits="userSpaceOnUse" x1="485.6705" y1="157.8702" x2="584.2167" y2="157.8702">
		<stop  offset="0" style="stop-color:#0097CE"/>
		<stop  offset="1" style="stop-color:#03004E"/>
	</linearGradient>
	<path fill="url(#SVGID_7_)" stroke="url(#SVGID_8_)" stroke-miterlimit="10" d="M583.2,145.5c-3,0.1-6.2,0.2-9.6,0.2
		c-3.4,0-6.6-0.1-9.6-0.2c-0.8-1.2-1.5-2.4-2-3.7s-1.3-2.4-2-3.5c-2.5-3.4-5.6-6.3-9.3-8.6c-3.7-2.3-8.1-3.7-13.2-4.1
		c-1.3-0.1-2.6-0.1-3.9,0c-8.1,0.7-14.8,3.8-20.1,9.5c-5.3,5.6-8.3,12.7-9,21.3c-0.3,5.2,0.6,9.8,2.6,14c2,4.1,4.3,7.6,6.9,10.3
		c2.5,2.6,5.5,4.8,9.1,6.5c3.6,1.8,7.6,2.7,12.2,2.9c3.6,0,7-0.6,10.2-1.9c3.2-1.3,5.9-2.9,8.3-4.8c2.5-1.9,4.5-4.1,6.1-6.5
		c1.6-2.4,3.1-5.2,4.4-8.2c3-0.3,6.2-0.4,9.6-0.4c3.4,0,6.6,0.1,9.6,0.4c-1.3,6.1-3.2,11.3-5.7,15.5c-2.5,4.2-5.6,8.1-9.4,11.6
		c-4.4,4.1-9.6,7.5-15.6,10.2c-6,2.7-13.4,3.7-22.2,3.1c-6.1-0.4-11.7-2-16.8-4.8c-5.1-2.8-9.5-6-13.3-9.7c-2.2-2.2-4.3-4.7-6.2-7.6
		c-2-2.9-3.6-6.2-5-9.8c-1.4-3.6-2.3-7.5-2.9-11.7c-0.6-4.2-0.6-8.8-0.1-13.7c0.6-6.5,2.2-12.3,4.8-17.2c2.5-5,5.5-9.2,8.9-12.7
		c3.1-3.4,6.6-6.3,10.4-8.6c3.8-2.3,8.3-4.1,13.4-5.5c2.2-0.5,4.9-1,8.2-1.2c3.2-0.3,6.4-0.3,9.4,0c5.6,0.5,10.7,2,15.2,4.5
		c4.5,2.4,8.5,5.2,11.9,8.4c3.6,3.5,6.7,7.4,9.2,11.6C580.2,135.3,582.1,140.1,583.2,145.5z"/>
	<linearGradient id="SVGID_9_" gradientUnits="userSpaceOnUse" x1="263.7431" y1="134.0441" x2="361.2061" y2="134.0441">
		<stop  offset="0" style="stop-color:#42E7FF"/>
		<stop  offset="1" style="stop-color:#003BBC"/>
	</linearGradient>
	<linearGradient id="SVGID_10_" gradientUnits="userSpaceOnUse" x1="263.2431" y1="134.0441" x2="361.7322" y2="134.0441">
		<stop  offset="0" style="stop-color:#0097CE"/>
		<stop  offset="1" style="stop-color:#03004E"/>
	</linearGradient>
	<path fill="url(#SVGID_9_)" stroke="url(#SVGID_10_)" stroke-miterlimit="10" d="M264.3,58.7h17.9v48.5c4.2,0.4,8.5,0.5,13.1,0.4
		c4.5-0.1,9-0.1,13.4,0v19h-26.3c0,6-0.1,11.9-0.4,17.6c-0.3,5.8-0.2,11.2,0.2,16.2c0.6,8.2,3.6,15,8.9,20.5
		c5.3,5.5,11.9,8.6,20,9.3c4.3,0.3,8.3-0.3,11.9-1.7c3.6-1.4,6.9-3.5,9.6-6.1c2.8-2.7,5.1-5.8,6.8-9.5c1.8-3.7,3-7.6,3.6-11.8
		c3,0.1,6.1,0.1,9.3,0c3.2-0.1,6.1-0.1,8.9,0.2c-0.4,6.9-1.8,13-4.1,18.3c-2.3,5.3-5.4,10.1-9.2,14.3c-4.4,4.9-10,8.9-16.8,11.9
		c-6.8,3.1-14.8,4.2-24.2,3.4c-6.2-0.5-11.7-2.2-16.5-5c-4.7-2.8-8.9-6-12.4-9.7s-6.6-8-9.2-12.9c-2.6-5-4.2-10.7-4.9-17.2
		c-0.4-4.1-0.5-8.4-0.3-12.8c0.2-4.5,0.3-9,0.3-13.5V59.7C263.9,59.2,263.9,58.8,264.3,58.7z"/>
	<linearGradient id="SVGID_11_" gradientUnits="userSpaceOnUse" x1="133.6499" y1="106.2375" x2="133.6499" y2="207.9675">
		<stop  offset="0" style="stop-color:#42E7FF"/>
		<stop  offset="1" style="stop-color:#003BBC"/>
	</linearGradient>
	<linearGradient id="SVGID_12_" gradientUnits="userSpaceOnUse" x1="123.9948" y1="157.1025" x2="143.3049" y2="157.1025">
		<stop  offset="0" style="stop-color:#0097CE"/>
		<stop  offset="1" style="stop-color:#03004E"/>
	</linearGradient>
	<path fill="url(#SVGID_11_)" stroke="url(#SVGID_12_)" stroke-miterlimit="10" d="M124.7,106.2v26.3c0,4.3,0.1,8.7,0.3,13.2
		c0.2,4.4,0.1,8.8-0.3,13.1c0,0.3-0.1,0.6-0.1,1l-0.1,37.9c0.2,1.5,0.3,3.1,0.2,4.9c-0.1,1.8-0.1,3.6,0,5.4h18.1V106.2H124.7z"/>
	<linearGradient id="SVGID_13_" gradientUnits="userSpaceOnUse" x1="45.2712" y1="157.2453" x2="124.5649" y2="157.2453">
		<stop  offset="0" style="stop-color:#42E7FF"/>
		<stop  offset="1" style="stop-color:#003BBC"/>
	</linearGradient>
	<linearGradient id="SVGID_14_" gradientUnits="userSpaceOnUse" x1="44.7712" y1="157.2453" x2="125.0649" y2="157.2453">
		<stop  offset="0" style="stop-color:#0097CE"/>
		<stop  offset="1" style="stop-color:#03004E"/>
	</linearGradient>
	<path fill="url(#SVGID_13_)" stroke="url(#SVGID_14_)" stroke-miterlimit="10" d="M124.6,159.8l-0.1,37.9c0,0,0-0.1,0-0.1
		c-2.2,1.5-4.5,3-7,4.4c-2.5,1.4-5.2,2.6-8.1,3.7c-2.9,1-6.1,1.8-9.5,2.3c-3.4,0.5-7.1,0.5-11.3,0.1c-6-0.7-11.4-2.3-16.2-5
		s-9-5.9-12.7-9.7c-3.5-3.7-6.6-8-9.3-13.2c-2.7-5.1-4.3-10.7-5-16.8c-0.3-2.3-0.3-4.7-0.2-7.1c0.1-2.5,0.2-4.8,0.2-7.1v-42.2
		c0-0.4,0.1-0.6,0.2-0.6h17.9c0.4,9,0.3,17.7-0.2,26.3c-0.5,8.6-0.5,17.2,0.2,25.9c0.7,8.6,3.7,15.7,9.1,21.3
		c5.4,5.7,12.2,8.7,20.4,9.3h2.1c3.9-0.1,7.5-1,10.9-2.5c3.4-1.6,6.4-3.7,9.1-6.3c2.7-2.6,4.8-5.8,6.4-9.4
		C123.2,167.4,124.1,163.8,124.6,159.8z"/>
	<linearGradient id="SVGID_15_" gradientUnits="userSpaceOnUse" x1="142.8049" y1="156.9221" x2="223.0486" y2="156.9221">
		<stop  offset="0" style="stop-color:#003BBC"/>
		<stop  offset="1" style="stop-color:#42E7FF"/>
	</linearGradient>
	<linearGradient id="SVGID_16_" gradientUnits="userSpaceOnUse" x1="142.3049" y1="156.9221" x2="223.5486" y2="156.9221">
		<stop  offset="0" style="stop-color:#0097CE"/>
		<stop  offset="1" style="stop-color:#03004E"/>
	</linearGradient>
	<path fill="url(#SVGID_15_)" stroke="url(#SVGID_16_)" stroke-miterlimit="10" d="M223,158.2c-0.1,2.4-0.2,4.8-0.2,7.1v42.4h-17.9
		v-26.3c0-5.2,0.1-10.5,0.3-16.1c0.2-5.6-0.2-10.6-1.1-15.1c-0.8-3.5-2.1-6.9-3.9-10c-1.8-3.1-4.1-5.8-6.7-8.1
		c-2.7-2.2-5.7-4-9.1-5.3c-3.4-1.3-7-1.9-10.7-1.7c-5.8,0.1-11.1,1.8-15.7,5.1c-4.6,3.3-8.2,7.3-10.6,12c-1.2,2.3-2,5-2.5,8.1
		c-0.5,3.1-0.8,6.3-1,9.7c-0.1,3.4-0.2,6.9-0.1,10.6s0.1,7.3,0.1,11v25.9c-0.3,0-0.7,0.1-1,0.1V118c0.3-0.2,0.5-0.5,0.8-0.7
		c4.5-3.9,9.8-6.9,16.1-9.1c2.6-0.8,5.7-1.4,9.3-1.8c3.6-0.4,7.2-0.5,11-0.2c6,0.7,11.4,2.3,16.2,5c4.8,2.6,9.1,5.9,12.9,9.7
		c3.4,3.7,6.4,8.1,9,13.3c2.6,5.2,4.2,10.8,4.9,16.9C223,153.4,223.1,155.8,223,158.2z"/>
	<line fill="none" x1="124.5" y1="198.3" x2="124.5" y2="217.2"/>
	<line fill="none" x1="124.7" y1="106.8" x2="124.6" y2="160.4"/>
	<polyline fill="#00BCF4" points="590.7,85.1 607.2,61.1 680.8,60.9 668.4,85.1 590.7,85.1 	"/>
	<polyline fill="#01FCFF" points="588.8,95.5 620,95.2 658.3,166.2 630.1,167.7 588.8,95.5 	"/>
	<polygon fill="#DFDFDF" points="665.3,160.1 700.4,96.8 686,70.7 651.2,136 	"/>
</g>
<g id="Layer_2_copy_xA0_Image_1_">
	<text transform="matrix(1 0 0 1 238.0293 284.1602)" fill="#098FAF" font-family="'MyriadPro-Regular'" font-size="88px">Academy</text>
</g>
</svg>
